<svg width="24" height="24" viewBox="0 0 24 24" xmlns="http://www.w3.org/2000/svg" xmlns:xlink="http://www.w3.org/1999/xlink">
    <defs>
        <path id="k1hmn4c5ta" d="M0 0h24v24H0z"/>
    </defs>
    <g fill="none" fill-rule="evenodd">
        <g>
            <mask id="vs4izw3mlb" fill="#fff">
                <use xlink:href="#k1hmn4c5ta"/>
            </mask>
            <path d="M21.822 12.007c-.061-5.453-4.343-9.813-9.824-9.819a9.76 9.76 0 0 0-9.822 9.807 9.759 9.759 0 0 0 9.82 9.83c5.467 0 9.761-4.35 9.826-9.818zM0 11.147c.076-.592.14-1.185.276-1.769.738-3.159 2.456-5.64 5.157-7.432a11.42 11.42 0 0 1 5.28-1.882c3.451-.331 6.524.616 9.157 2.883 2.07 1.784 3.387 4.038 3.891 6.72.72 3.827-.189 7.261-2.722 10.226-1.768 2.07-4.029 3.339-6.692 3.893-.494.102-.997.147-1.496.214h-1.72c-.508-.067-1.018-.118-1.52-.22-2.136-.44-4.025-1.377-5.644-2.837C2.085 19.246.86 17.155.285 14.683c-.14-.599-.21-1.207-.285-1.816v-1.72z" fill="#999" mask="url(#vs4izw3mlb)"/>
        </g>
        <g fill="#999">
            <path d="M10.922 13.777c0-1.33.016-2.66-.013-3.989-.006-.27.208-.356.871-.346 1.407.021 1.31-.056 1.31.536v7.791c0 .392-.003.392-.99.393-.132 0-.265-.006-.395 0-.613.034-.796-.077-.792-.317.02-1.356.01-2.712.009-4.068M10.923 6.98c0-.233-.002-.465.001-.698.001-.07-.03-.156.035-.205.434-.335 1.083-.103 1.627-.156.365-.036.502.094.5.275a99.78 99.78 0 0 0 .002 1.57c.002.207-.194.275-.571.288-1.596.053-1.595.058-1.595-.795v-.28"/>
        </g>
    </g>
</svg>
