<svg width="48" height="48" viewBox="0 0 48 48" xmlns="http://www.w3.org/2000/svg" xmlns:xlink="http://www.w3.org/1999/xlink">
    <defs>
        <path id="ivckr2fe4a" d="M0 0h2.4v7.2H0z"/>
    </defs>
    <g fill="none" fill-rule="evenodd">
        <circle fill="#F8D7C4" cx="24" cy="24" r="24"/>
        <path d="M24.052 33.6c-2.428-.012-4.668-.843-6.5-2.703-.45-.456-.527-.979-.24-1.476.28-.49.717-.702 1.251-.573.25.061.513.216.695.404 2.547 2.63 7.41 2.555 9.848-.008.563-.591 1.326-.576 1.793-.05.465.522.388 1.256-.205 1.831-1.825 1.772-4.023 2.568-6.642 2.575M25.369 19.548c0 1.11.004 2.22-.001 3.331-.01 1.904-1.464 3.405-3.402 3.518-.737.043-1.31-.395-1.387-1.06-.074-.641.427-1.19 1.167-1.276.853-.1 1.216-.498 1.22-1.393.01-2.094.003-4.188.005-6.281 0-.2-.001-.402.024-.6.083-.672.58-1.077 1.26-1.042.632.033 1.101.494 1.109 1.143.014 1.22.004 2.44.005 3.66" fill="#E03CE2"/>
        <g transform="translate(15.771 14.743)">
            <mask id="f4vzo4nhzb" fill="#fff">
                <use xlink:href="#ivckr2fe4a"/>
            </mask>
            <path d="M2.397 3.59c0 .784.008 1.57-.002 2.354-.01.71-.509 1.237-1.163 1.256A1.17 1.17 0 0 1 .025 6.055a121.594 121.594 0 0 1 0-4.932C.04.397.588-.037 1.287.003c.65.035 1.098.523 1.108 1.231.01.785.002 1.57.002 2.355" fill="#E03CE2" mask="url(#f4vzo4nhzb)"/>
        </g>
        <path d="M32.226 18.349c0 .766.006 1.532-.002 2.298-.007.745-.507 1.288-1.177 1.296-.644.007-1.187-.498-1.199-1.217-.026-1.606-.027-3.214.004-4.82.015-.737.536-1.183 1.227-1.162.676.02 1.136.513 1.145 1.25.01.785.002 1.57.002 2.355" fill="#E03CE2"/>
    </g>
</svg>
